<?xml version="1.0" standalone="no"?>
<!DOCTYPE svg PUBLIC "-//W3C//DTD SVG 20010904//EN"
 "http://www.w3.org/TR/2001/REC-SVG-20010904/DTD/svg10.dtd">
<svg version="1.0" xmlns="http://www.w3.org/2000/svg"
 width="1024.000000pt" height="1024.000000pt" viewBox="0 0 1024.000000 1024.000000"
 preserveAspectRatio="xMidYMid meet">

<g transform="translate(0.000000,1024.000000) scale(0.100000,-0.100000)"
fill="#000000" stroke="none">
<path d="M4637 9643 c-4 -3 -7 -217 -7 -474 l0 -467 66 -7 c42 -5 74 -3 90 4
l24 11 0 315 c0 173 3 315 8 315 4 0 62 -143 128 -318 l122 -317 44 -3 c28 -2
48 2 55 10 5 7 60 148 122 313 62 165 116 309 120 320 5 11 12 -130 16 -312
l8 -333 83 0 84 0 0 449 c0 268 -4 460 -10 475 -9 26 -10 26 -129 26 l-119 0
-62 -172 c-34 -95 -85 -237 -112 -316 -28 -79 -52 -142 -53 -140 -2 2 -51 138
-110 303 -59 165 -111 306 -117 312 -11 14 -239 19 -251 6z"/>
<path d="M5986 8740 c-115 -8 -131 -19 -123 -84 9 -68 18 -71 193 -69 103 1
160 6 170 14 22 18 19 116 -3 127 -28 14 -128 19 -237 12z"/>
<path d="M1484 8726 c-17 -13 -19 -27 -19 -160 0 -94 4 -149 11 -156 19 -19
87 -23 108 -7 16 12 20 30 24 100 l4 86 107 3 106 3 3 57 c4 83 -6 88 -183 88
-106 0 -146 -4 -161 -14z"/>
<path d="M2110 8720 c-26 -26 -35 -88 -15 -110 13 -14 39 -18 163 -23 183 -6
192 -2 192 78 0 51 -2 56 -26 66 -15 5 -87 9 -161 8 -115 -1 -137 -3 -153 -19z"/>
<path d="M2765 8733 c-29 -7 -45 -32 -45 -73 0 -64 8 -68 170 -75 185 -8 194
-4 198 81 l3 61 -38 7 c-43 7 -257 6 -288 -1z"/>
<path d="M3411 8730 c-42 -10 -51 -24 -51 -77 0 -32 5 -45 19 -53 11 -5 85
-10 170 -10 177 0 184 3 179 83 -3 45 -6 52 -28 58 -34 10 -247 9 -289 -1z"/>
<path d="M4045 8731 l-40 -6 -3 -56 c-2 -37 2 -59 10 -66 7 -6 77 -14 155 -18
l142 -7 25 25 c19 19 26 37 26 66 0 62 -21 71 -160 70 -63 -1 -133 -5 -155 -8z"/>
<path d="M6542 8730 c-21 -9 -23 -15 -20 -72 l3 -63 45 -7 c56 -8 225 -8 265
1 29 6 30 8 33 70 2 45 -1 67 -10 72 -18 12 -287 10 -316 -1z"/>
<path d="M7163 8733 c-8 -3 -13 -25 -13 -58 0 -89 -8 -85 165 -85 84 0 160 3
169 6 12 5 16 21 16 65 0 47 -4 60 -19 69 -20 10 -294 13 -318 3z"/>
<path d="M7782 8728 c-7 -7 -12 -35 -12 -63 0 -28 5 -56 12 -63 8 -8 60 -12
169 -12 181 0 182 0 177 82 l-3 53 -55 7 c-98 11 -275 9 -288 -4z"/>
<path d="M8396 8724 c-11 -29 -7 -124 7 -129 6 -2 53 -6 102 -7 l90 -3 6 -75
c3 -41 9 -83 13 -92 18 -40 110 -34 126 8 6 14 10 80 10 147 0 175 9 167 -189
167 -136 0 -160 -2 -165 -16z"/>
<path d="M1499 8114 c-14 -4 -17 -27 -21 -152 -6 -184 -2 -196 67 -200 81 -4
80 -5 78 174 0 86 -5 160 -10 164 -10 10 -92 20 -114 14z"/>
<path d="M4920 7770 l0 -340 55 0 55 0 0 135 0 135 83 0 c100 0 153 13 191 48
39 37 56 81 56 149 -1 101 -54 179 -138 203 -20 5 -97 10 -169 10 l-133 0 0
-340z m292 220 c43 -33 46 -127 6 -169 -16 -18 -31 -21 -103 -21 l-85 0 0 105
0 105 79 0 c63 0 83 -4 103 -20z"/>
<path d="M8616 8086 c-9 -37 -8 -247 2 -281 8 -28 12 -30 64 -33 47 -2 57 0
61 15 7 22 12 186 9 266 l-2 57 -64 0 c-59 0 -64 -2 -70 -24z"/>
<path d="M2397 7855 c-13 -13 -17 -36 -17 -105 0 -49 4 -100 9 -113 13 -33 46
-43 76 -23 22 14 25 24 25 76 l0 60 79 0 c85 0 91 4 91 58 0 52 -10 57 -133
60 -96 3 -117 1 -130 -13z"/>
<path d="M2880 7862 c-8 -3 -18 -10 -22 -16 -10 -15 -10 -74 0 -80 4 -2 58 -8
120 -12 131 -8 142 -3 142 61 0 38 -3 44 -26 49 -29 8 -191 6 -214 -2z"/>
<path d="M3353 7863 c-43 -8 -43 -95 -1 -107 43 -11 223 -7 236 6 7 7 12 29
12 50 0 32 -4 40 -26 48 -25 10 -177 12 -221 3z"/>
<path d="M3845 7863 c-11 -3 -26 -10 -32 -15 -16 -13 -17 -74 -3 -83 6 -4 62
-7 125 -7 129 -1 145 6 145 58 0 28 -5 36 -26 44 -26 10 -172 12 -209 3z"/>
<path d="M4308 7863 c-28 -4 -33 -15 -29 -63 3 -42 26 -50 137 -50 95 0 104 2
118 22 21 30 20 61 -2 81 -15 14 -37 17 -108 16 -49 -1 -101 -4 -116 -6z"/>
<path d="M5693 7860 c-18 -7 -23 -17 -23 -44 0 -58 17 -66 136 -66 58 0 114 5
125 10 22 12 27 78 7 98 -14 14 -211 16 -245 2z"/>
<path d="M6178 7863 c-24 -6 -26 -98 -2 -107 20 -8 192 -8 222 0 21 6 23 12
20 58 l-3 51 -110 1 c-60 1 -118 0 -127 -3z"/>
<path d="M6637 7863 c-13 -12 -8 -103 6 -103 6 -1 50 -3 97 -6 46 -3 99 -3
117 1 32 6 33 8 33 54 0 42 -3 49 -22 55 -31 8 -223 8 -231 -1z"/>
<path d="M7102 7858 c-13 -13 -16 -66 -4 -85 10 -15 238 -21 253 -6 5 5 9 28
7 49 -3 37 -5 39 -43 46 -67 12 -200 9 -213 -4z"/>
<path d="M7560 7844 c-6 -15 -7 -39 -2 -57 8 -32 9 -32 80 -35 l72 -3 0 -44
c0 -84 29 -116 84 -96 26 10 26 11 26 124 0 75 -4 117 -12 125 -8 8 -50 12
-125 12 -113 0 -114 0 -123 -26z"/>
<path d="M8650 7480 c-32 -8 -37 -32 -39 -191 -1 -154 2 -161 79 -157 l55 3 3
153 c1 88 -2 160 -7 171 -11 21 -53 30 -91 21z"/>
<path d="M1483 7468 c-4 -7 -9 -78 -11 -158 -4 -173 0 -184 73 -182 26 0 52 5
59 12 7 7 11 65 11 173 l0 162 -62 3 c-42 2 -64 -1 -70 -10z"/>
<path d="M2407 7393 c-2 -5 -8 -56 -11 -115 -9 -132 -3 -148 58 -148 l43 0 6
51 c4 28 4 86 0 129 -5 69 -8 79 -27 84 -30 8 -64 7 -69 -1z"/>
<path d="M7738 7390 c-15 -9 -18 -26 -18 -104 0 -52 3 -108 6 -125 6 -30 9
-32 47 -29 39 3 42 5 50 43 8 38 4 201 -5 210 -11 11 -65 14 -80 5z"/>
<path d="M3787 7030 l-528 -5 -19 -25 c-19 -24 -20 -62 -17 -1873 l2 -1849 24
-19 c23 -19 62 -19 1868 -17 l1845 3 19 24 c19 23 19 67 19 1877 l0 1854 -22
14 c-20 12 -211 15 -1343 18 -726 2 -1558 1 -1848 -2z m3073 -1890 l0 -1750
-1725 0 c-1618 0 -1726 1 -1745 17 -20 17 -20 27 -20 1750 l0 1733 1745 0
1745 0 0 -1750z"/>
<path d="M4540 5095 l0 -905 580 0 580 0 0 100 0 100 -457 2 -458 3 -3 328 -2
327 430 0 430 0 0 105 0 105 -430 0 -430 0 0 265 0 265 450 0 450 0 0 105 0
105 -570 0 -570 0 0 -905z"/>
<path d="M7736 6904 c-13 -12 -16 -38 -16 -119 0 -57 3 -110 6 -119 4 -11 19
-16 50 -16 l44 0 0 129 c0 108 -3 130 -16 135 -27 10 -52 7 -68 -10z"/>
<path d="M2396 6888 c-8 -30 -8 -202 0 -222 4 -11 19 -16 49 -16 53 0 55 5 55
153 l0 107 -49 0 c-42 0 -49 -3 -55 -22z"/>
<path d="M1498 6843 c-23 -6 -32 -70 -26 -201 6 -134 14 -152 72 -152 66 0 70
11 74 175 5 171 0 186 -61 184 -23 -1 -50 -3 -59 -6z"/>
<path d="M8640 6840 c-11 -7 -15 -42 -18 -162 -1 -84 1 -159 6 -165 4 -7 29
-16 55 -19 72 -10 76 0 77 180 0 130 -2 150 -17 162 -21 15 -81 18 -103 4z"/>
<path d="M2406 6424 c-12 -12 -16 -36 -15 -107 1 -130 6 -141 56 -145 38 -3
41 -1 47 29 11 56 7 214 -6 227 -17 17 -64 15 -82 -4z"/>
<path d="M7743 6433 c-10 -3 -13 -39 -13 -128 0 -134 1 -135 60 -135 16 0 30
7 34 16 11 30 7 229 -6 242 -12 12 -52 15 -75 5z"/>
<path d="M8641 6191 c-19 -19 -21 -32 -21 -155 0 -103 3 -136 14 -145 9 -7 38
-11 73 -9 l58 3 3 149 c1 82 -1 153 -5 157 -5 4 -29 10 -55 14 -39 6 -49 4
-67 -14z"/>
<path d="M1485 6178 c-3 -13 -7 -80 -8 -149 -2 -146 3 -159 67 -159 74 1 77 7
74 176 l-3 149 -62 3 c-58 3 -63 1 -68 -20z"/>
<path d="M2404 5938 c-14 -22 -17 -193 -4 -217 9 -18 19 -22 53 -19 l42 3 0
120 0 120 -42 3 c-26 2 -44 -2 -49 -10z"/>
<path d="M7736 5928 c-8 -41 -15 -176 -9 -198 5 -17 13 -20 59 -20 l55 0 -3
118 -3 117 -47 3 c-43 3 -48 1 -52 -20z"/>
<path d="M8675 5588 c-3 -40 -5 -248 -3 -463 l3 -390 80 0 80 0 6 145 c4 80 7
228 8 330 0 101 5 180 9 175 12 -14 123 -285 196 -482 l63 -168 40 -3 c24 -2
44 2 50 10 6 7 29 72 53 143 23 72 77 218 119 325 l76 194 3 -337 2 -337 86 0
86 0 -4 456 c-4 411 -6 457 -21 465 -9 5 -69 8 -134 7 l-117 -3 -97 -285 c-54
-157 -100 -289 -102 -294 -1 -5 -52 121 -111 280 -59 159 -113 292 -119 296
-7 4 -64 8 -129 8 l-116 0 -7 -72z"/>
<path d="M595 5203 c4 -246 8 -454 11 -460 2 -9 27 -13 79 -13 l75 0 0 322 c0
232 3 319 11 311 6 -6 62 -142 125 -302 62 -161 118 -301 124 -311 8 -15 21
-20 48 -20 20 0 42 4 47 8 6 4 43 88 82 187 40 99 99 243 132 320 l60 140 3
-325 3 -325 80 0 80 0 3 458 2 457 -124 0 -123 0 -51 -137 c-143 -389 -175
-473 -181 -473 -3 0 -28 57 -55 128 -27 70 -82 206 -122 302 l-73 175 -121 3
-121 3 6 -448z"/>
<path d="M2300 5160 l0 -340 55 0 55 0 0 135 0 135 83 0 c100 0 153 13 191 48
39 37 56 81 56 149 -1 101 -54 179 -138 203 -20 5 -97 10 -169 10 l-133 0 0
-340z m292 220 c43 -33 46 -127 6 -169 -16 -18 -31 -21 -103 -21 l-85 0 0 105
0 105 79 0 c63 0 83 -4 103 -20z"/>
<path d="M7650 5141 l0 -341 55 0 55 0 0 135 0 135 93 0 c106 0 157 18 200 69
51 61 51 196 0 260 -52 64 -88 76 -255 79 l-148 3 0 -340z m298 216 c29 -27
37 -86 17 -133 -9 -21 -21 -42 -28 -46 -7 -4 -49 -8 -94 -8 l-83 0 0 106 0
106 84 -3 c64 -3 89 -8 104 -22z"/>
<path d="M2400 4604 c-13 -33 -13 -185 0 -219 9 -23 14 -26 52 -23 l43 3 3
110 c4 148 2 155 -48 155 -34 0 -42 -4 -50 -26z"/>
<path d="M7729 4603 c-5 -14 -8 -74 -7 -132 l3 -106 45 0 45 0 3 133 3 132
-41 0 c-35 0 -42 -4 -51 -27z"/>
<path d="M1503 4452 c-6 -4 -17 -20 -22 -35 -15 -38 -14 -230 1 -279 l11 -39
61 3 61 3 3 158 c1 97 -2 165 -8 177 -8 15 -21 20 -53 20 -23 0 -47 -4 -54 -8z"/>
<path d="M8633 4448 c-6 -7 -14 -31 -18 -53 -11 -55 -6 -267 7 -282 14 -18
103 -17 117 1 8 9 11 65 9 177 l-3 164 -51 3 c-33 2 -54 -2 -61 -10z"/>
<path d="M2404 4138 c-12 -20 -17 -179 -7 -218 9 -33 11 -35 54 -35 l44 0 3
123 3 122 -26 10 c-35 13 -62 13 -71 -2z"/>
<path d="M7748 4143 c-22 -6 -30 -61 -26 -173 l3 -85 50 0 50 0 3 123 3 122
-26 10 c-27 10 -29 11 -57 3z"/>
<path d="M1490 3805 c-12 -14 -15 -50 -15 -159 0 -173 5 -186 74 -186 30 0 53
5 61 14 14 18 15 315 0 330 -5 5 -31 11 -57 13 -38 4 -52 1 -63 -12z"/>
<path d="M8644 3810 c-26 -10 -33 -51 -36 -211 -3 -126 3 -139 69 -139 83 0
83 -1 83 181 l0 159 -26 10 c-30 12 -61 12 -90 0z"/>
<path d="M2406 3648 c-8 -26 -14 -214 -7 -238 5 -20 14 -26 42 -28 55 -5 60 9
57 149 l-3 124 -43 3 c-28 2 -44 -1 -46 -10z"/>
<path d="M7727 3653 c-9 -8 -9 -220 -1 -250 5 -18 14 -23 38 -23 56 0 61 9 64
125 5 146 2 155 -52 155 -23 0 -46 -3 -49 -7z"/>
<path d="M1490 3144 c-13 -34 -13 -290 0 -315 8 -15 21 -19 60 -19 39 0 52 4
60 19 15 28 13 314 -2 329 -7 7 -34 12 -60 12 -43 0 -50 -3 -58 -26z"/>
<path d="M2397 3093 c-7 -81 -3 -171 8 -181 7 -8 74 -6 83 2 3 4 6 61 6 129
l1 122 -46 3 -46 3 -6 -78z"/>
<path d="M7716 3154 c-6 -17 -2 -104 10 -201 l5 -43 43 0 43 0 5 58 c3 31 2
89 -1 127 l-6 70 -46 3 c-37 2 -48 -1 -53 -14z"/>
<path d="M8622 3158 c-15 -15 -17 -284 -2 -322 8 -22 16 -26 53 -26 78 0 82 8
85 173 5 179 1 187 -71 187 -29 0 -58 -5 -65 -12z"/>
<path d="M4920 2500 l0 -340 55 0 55 0 0 135 0 135 83 0 c100 0 153 13 191 48
39 37 56 81 56 149 -1 101 -54 179 -138 203 -20 5 -97 10 -169 10 l-133 0 0
-340z m292 220 c43 -33 46 -127 6 -169 -16 -18 -31 -21 -103 -21 l-85 0 0 105
0 105 79 0 c63 0 83 -4 103 -20z"/>
<path d="M2407 2683 c-11 -10 -8 -223 3 -244 10 -17 22 -19 130 -19 l120 0 0
43 c0 24 -5 48 -12 55 -7 7 -40 12 -80 12 l-68 0 0 68 c0 40 -5 73 -12 80 -13
13 -70 17 -81 5z"/>
<path d="M7743 2682 c-7 -4 -13 -37 -15 -77 l-3 -70 -80 -5 -80 -5 0 -50 0
-50 125 0 125 0 0 130 0 130 -30 3 c-16 1 -35 -1 -42 -6z"/>
<path d="M4296 2524 c-19 -18 -21 -75 -4 -92 8 -8 49 -12 119 -12 100 0 109 2
123 22 21 30 20 61 -2 81 -26 24 -213 25 -236 1z"/>
<path d="M5682 2528 c-20 -20 -15 -86 7 -98 11 -5 69 -10 130 -10 99 0 111 2
121 19 17 32 12 79 -9 91 -28 14 -234 13 -249 -2z"/>
<path d="M6173 2530 c-18 -7 -23 -17 -23 -48 0 -21 5 -43 12 -50 8 -8 52 -12
130 -12 l118 0 11 27 c11 30 4 74 -14 85 -17 11 -207 9 -234 -2z"/>
<path d="M1480 2368 c0 -90 4 -169 9 -176 5 -9 25 -12 62 -10 l54 3 8 70 c4
39 6 115 5 170 l-3 100 -67 3 -68 3 0 -163z"/>
<path d="M2872 2517 c-19 -22 -25 -66 -12 -82 19 -23 255 -22 264 1 10 26 7
69 -6 82 -17 17 -232 17 -246 -1z"/>
<path d="M3365 2521 c-28 -6 -30 -9 -30 -51 l0 -45 130 0 130 0 3 40 c5 56
-13 65 -117 64 -47 -1 -99 -4 -116 -8z"/>
<path d="M3840 2521 c-20 -5 -26 -14 -28 -45 -2 -24 2 -42 10 -47 21 -14 232
-11 246 3 18 18 15 85 -4 92 -21 8 -192 6 -224 -3z"/>
<path d="M6637 2523 c-4 -3 -7 -26 -7 -50 0 -60 22 -67 160 -56 l105 8 3 38
c5 62 -5 67 -138 67 -64 0 -120 -3 -123 -7z"/>
<path d="M7114 2522 c-17 -11 -26 -47 -18 -76 l6 -26 117 0 c78 0 121 4 129
12 18 18 15 85 -4 92 -22 9 -217 7 -230 -2z"/>
<path d="M8608 2505 c-8 -18 -8 -61 0 -164 5 -77 13 -145 17 -151 3 -5 33 -10
66 -10 l59 0 0 156 c0 88 -4 164 -10 175 -9 15 -22 19 -66 19 -48 0 -56 -3
-66 -25z"/>
<path d="M1497 1883 c-4 -3 -7 -74 -7 -157 0 -208 -11 -196 184 -196 171 0
166 -2 166 70 0 65 -21 79 -125 82 l-90 3 -3 89 c-2 50 -8 96 -14 103 -11 13
-99 18 -111 6z"/>
<path d="M8634 1879 c-4 -6 -9 -54 -12 -105 l-5 -94 -101 0 c-66 0 -106 -4
-114 -12 -14 -14 -16 -96 -3 -117 7 -11 44 -15 155 -19 124 -4 150 -2 171 12
l25 17 -2 162 -3 162 -52 3 c-32 2 -54 -2 -59 -9z"/>
<path d="M4026 1677 c-14 -10 -18 -27 -18 -64 0 -28 3 -56 6 -62 5 -7 61 -11
161 -11 148 0 154 1 169 22 22 31 20 91 -2 111 -15 14 -42 17 -158 17 -100 0
-145 -4 -158 -13z"/>
<path d="M5882 1678 c-7 -7 -12 -36 -12 -66 0 -52 1 -53 36 -68 30 -12 62 -14
176 -8 136 7 140 8 149 31 17 44 11 91 -13 107 -29 20 -317 23 -336 4z"/>
<path d="M6540 1677 c-22 -11 -25 -19 -25 -67 0 -75 12 -80 188 -80 124 0 139
2 157 20 22 22 28 92 10 120 -13 21 -292 27 -330 7z"/>
<path d="M2116 1661 c-28 -31 -32 -85 -7 -110 20 -20 32 -21 176 -21 176 0
175 0 175 84 0 35 -5 48 -19 56 -11 5 -84 10 -164 10 -128 0 -146 -2 -161 -19z"/>
<path d="M2785 1673 c-45 -7 -55 -21 -55 -74 0 -44 3 -51 26 -59 38 -15 307
-13 322 2 7 7 12 36 12 65 0 48 -3 54 -26 63 -25 10 -219 11 -279 3z"/>
<path d="M3423 1673 c-43 -6 -55 -23 -51 -75 4 -61 23 -68 190 -68 165 0 170
3 166 89 l-3 56 -135 1 c-74 1 -149 -1 -167 -3z"/>
<path d="M7162 1668 c-17 -17 -15 -100 2 -124 13 -17 26 -19 155 -16 180 3
191 7 191 67 0 85 1 85 -178 85 -110 0 -162 -4 -170 -12z"/>
<path d="M7793 1670 c-19 -8 -23 -17 -23 -55 0 -85 0 -85 168 -85 179 0 192 5
192 80 0 39 -4 52 -19 60 -24 12 -287 12 -318 0z"/>
<path d="M4630 1091 l0 -470 56 -7 c30 -3 70 -2 87 3 l32 9 5 334 5 333 131
-334 131 -334 43 0 c28 0 46 5 51 15 11 19 134 335 198 510 l50 135 0 -301 c1
-166 4 -315 7 -331 6 -28 10 -31 59 -37 29 -3 67 -3 84 0 l31 7 -2 466 -3 466
-129 0 -129 0 -47 -125 c-25 -69 -73 -203 -106 -297 -32 -95 -61 -173 -64
-173 -5 0 -104 260 -185 484 l-40 111 -133 3 -132 3 0 -470z"/>
</g>
</svg>
