<?xml version="1.0" standalone="no"?>
<!DOCTYPE svg PUBLIC "-//W3C//DTD SVG 20010904//EN"
 "http://www.w3.org/TR/2001/REC-SVG-20010904/DTD/svg10.dtd">
<svg version="1.0" xmlns="http://www.w3.org/2000/svg"
 width="1024.000000pt" height="1024.000000pt" viewBox="0 0 1024.000000 1024.000000"
 preserveAspectRatio="xMidYMid meet">

<g transform="translate(0.000000,1024.000000) scale(0.100000,-0.100000)"
fill="#000000" stroke="none">
<path d="M1484 8726 c-17 -13 -19 -27 -19 -160 0 -94 4 -149 11 -156 19 -19
87 -23 108 -7 16 12 20 30 24 100 l4 86 107 3 106 3 3 57 c4 83 -6 88 -183 88
-106 0 -146 -4 -161 -14z"/>
<path d="M2110 8720 c-26 -26 -35 -88 -15 -110 13 -14 39 -18 163 -23 183 -6
192 -2 192 78 0 51 -2 56 -26 66 -15 5 -87 9 -161 8 -115 -1 -137 -3 -153 -19z"/>
<path d="M7782 8728 c-7 -7 -12 -35 -12 -63 0 -28 5 -56 12 -63 8 -8 60 -12
169 -12 181 0 182 0 177 82 l-3 53 -55 7 c-98 11 -275 9 -288 -4z"/>
<path d="M8396 8724 c-11 -29 -7 -124 7 -129 6 -2 53 -6 102 -7 l90 -3 6 -75
c3 -41 9 -83 13 -92 18 -40 110 -34 126 8 6 14 10 80 10 147 0 175 9 167 -189
167 -136 0 -160 -2 -165 -16z"/>
<path d="M1499 8114 c-14 -4 -17 -27 -21 -152 -6 -184 -2 -196 67 -200 81 -4
80 -5 78 174 0 86 -5 160 -10 164 -10 10 -92 20 -114 14z"/>
<path d="M8616 8086 c-9 -37 -8 -247 2 -281 8 -28 12 -30 64 -33 47 -2 57 0
61 15 7 22 12 186 9 266 l-2 57 -64 0 c-59 0 -64 -2 -70 -24z"/>
<path d="M2397 7855 c-13 -13 -17 -36 -17 -105 0 -49 4 -100 9 -113 13 -33 46
-43 76 -23 22 14 25 24 25 76 l0 60 79 0 c85 0 91 4 91 58 0 52 -10 57 -133
60 -96 3 -117 1 -130 -13z"/>
<path d="M2880 7862 c-8 -3 -18 -10 -22 -16 -10 -15 -10 -74 0 -80 4 -2 58 -8
120 -12 131 -8 142 -3 142 61 0 38 -3 44 -26 49 -29 8 -191 6 -214 -2z"/>
<path d="M7102 7858 c-13 -13 -16 -66 -4 -85 10 -15 238 -21 253 -6 5 5 9 28
7 49 -3 37 -5 39 -43 46 -67 12 -200 9 -213 -4z"/>
<path d="M7560 7844 c-6 -15 -7 -39 -2 -57 8 -32 9 -32 80 -35 l72 -3 0 -44
c0 -84 29 -116 84 -96 26 10 26 11 26 124 0 75 -4 117 -12 125 -8 8 -50 12
-125 12 -113 0 -114 0 -123 -26z"/>
<path d="M2407 7393 c-2 -5 -8 -56 -11 -115 -9 -132 -3 -148 58 -148 l43 0 6
51 c4 28 4 86 0 129 -5 69 -8 79 -27 84 -30 8 -64 7 -69 -1z"/>
<path d="M7738 7390 c-15 -9 -18 -26 -18 -104 0 -52 3 -108 6 -125 6 -30 9
-32 47 -29 39 3 42 5 50 43 8 38 4 201 -5 210 -11 11 -65 14 -80 5z"/>
<path d="M3787 7030 l-528 -5 -19 -25 c-19 -24 -20 -62 -17 -1873 l2 -1849 24
-19 c23 -19 62 -19 1868 -17 l1845 3 19 24 c19 23 19 67 19 1877 l0 1854 -22
14 c-20 12 -211 15 -1343 18 -726 2 -1558 1 -1848 -2z m3073 -1890 l0 -1750
-1725 0 c-1618 0 -1726 1 -1745 17 -20 17 -20 27 -20 1750 l0 1733 1745 0
1745 0 0 -1750z"/>
<path d="M4540 5095 l0 -905 580 0 580 0 0 100 0 100 -457 2 -458 3 -3 328 -2
327 430 0 430 0 0 105 0 105 -430 0 -430 0 0 265 0 265 450 0 450 0 0 105 0
105 -570 0 -570 0 0 -905z"/>
<path d="M2397 3093 c-7 -81 -3 -171 8 -181 7 -8 74 -6 83 2 3 4 6 61 6 129
l1 122 -46 3 -46 3 -6 -78z"/>
<path d="M7716 3154 c-6 -17 -2 -104 10 -201 l5 -43 43 0 43 0 5 58 c3 31 2
89 -1 127 l-6 70 -46 3 c-37 2 -48 -1 -53 -14z"/>
<path d="M2407 2683 c-11 -10 -8 -223 3 -244 10 -17 22 -19 130 -19 l120 0 0
43 c0 24 -5 48 -12 55 -7 7 -40 12 -80 12 l-68 0 0 68 c0 40 -5 73 -12 80 -13
13 -70 17 -81 5z"/>
<path d="M7743 2682 c-7 -4 -13 -37 -15 -77 l-3 -70 -80 -5 -80 -5 0 -50 0
-50 125 0 125 0 0 130 0 130 -30 3 c-16 1 -35 -1 -42 -6z"/>
<path d="M1480 2368 c0 -90 4 -169 9 -176 5 -9 25 -12 62 -10 l54 3 8 70 c4
39 6 115 5 170 l-3 100 -67 3 -68 3 0 -163z"/>
<path d="M2872 2517 c-7 -8 -15 -27 -18 -44 -9 -48 8 -54 142 -51 l119 3 0 50
0 50 -116 3 c-89 2 -119 -1 -127 -11z"/>
<path d="M7114 2522 c-17 -11 -26 -47 -18 -76 l6 -26 117 0 c78 0 121 4 129
12 18 18 15 85 -4 92 -22 9 -217 7 -230 -2z"/>
<path d="M8608 2505 c-8 -18 -8 -61 0 -164 5 -77 13 -145 17 -151 3 -5 33 -10
66 -10 l59 0 0 156 c0 88 -4 164 -10 175 -9 15 -22 19 -66 19 -48 0 -56 -3
-66 -25z"/>
<path d="M1497 1883 c-4 -3 -7 -74 -7 -157 0 -208 -11 -196 184 -196 171 0
166 -2 166 70 0 65 -21 79 -125 82 l-90 3 -3 89 c-2 50 -8 96 -14 103 -11 13
-99 18 -111 6z"/>
<path d="M8634 1879 c-4 -6 -9 -54 -12 -105 l-5 -94 -101 0 c-66 0 -106 -4
-114 -12 -14 -14 -16 -96 -3 -117 7 -11 44 -15 155 -19 124 -4 150 -2 171 12
l25 17 -2 162 -3 162 -52 3 c-32 2 -54 -2 -59 -9z"/>
<path d="M2116 1661 c-28 -31 -32 -85 -7 -110 20 -20 32 -21 176 -21 176 0
175 0 175 84 0 35 -5 48 -19 56 -11 5 -84 10 -164 10 -128 0 -146 -2 -161 -19z"/>
<path d="M7793 1670 c-19 -8 -23 -17 -23 -55 0 -85 0 -85 168 -85 179 0 192 5
192 80 0 39 -4 52 -19 60 -24 12 -287 12 -318 0z"/>
</g>
</svg>
